<svg xmlns="http://www.w3.org/2000/svg" viewBox="0 -4.996746 100 109.993492">
  <g transform="translate(-0.000593146 -0.003254)">
    <path
      fill="#000000"
      d="m49.461 5c-4.3867 0.023438-7.957 3.6055-7.957 8 0 4.4062 3.5859 8.0039 7.9961 8.0039 4.4062 0 8.0039-3.5938 8.0039-8.0039 0-4.3945-3.5742-7.9805-7.9648-8zm-5.0195 18.004c-7.8242 0.48438-13.941 4.3789-14.824 4.8867l-11.242 6.4883c-1.9102 1.1055-2.5742 3.582-1.4688 5.4922h0.007812c0.53906 0.92188 1.3984 1.5391 2.3555 1.8125l-4.5312 16.32h-3.2383c-0.55469-0.003906-1.0078 0.44922-1.0039 1.0039v2.9961c0 5.5117 4.4922 10.004 10.004 10.004s9.9961-4.4922 9.9961-10.004v-2.9961c0.003906-0.55469-0.44531-1.0039-1-1.0039h-3.2383l-4.5586-16.391c0.23047-0.082031 0.45703-0.18359 0.67969-0.30859l11.539-5.3945c0.007812-0.003906 0.015625-0.011718 0.023437-0.015625h0.003906c1.8555-0.92578 3.3242-1.0703 4.1836-0.80469 1.0156 0.25781 1.3633 1.1523 1.3711 1.9766v15.941c0 1.1719-0.25781 2.332-0.75 3.3984l-4.0781 8.8359c-0.80859 1.7539-0.80469 3.7812 0.011719 5.5352l7.0586 15.164c0.007812 0.023438 0.019531 0.046875 0.03125 0.070313 1.0938 1.9375 3.5859 2.5781 5.5078 1.5117 0.96484-0.53516 1.5898-1.4297 1.8438-2.3867 0.25-0.95703 0.16797-1.9727-0.14844-2.9258l-3.7227-11.125c-0.44141-1.3125-0.38281-2.7344 0.16406-4.0078l3.3086-7.7109 1.625 31.695c0.11328 2.1992 1.9531 3.9453 4.1562 3.9453 2.1992 0 4.0195-1.7734 4.0742-3.9727l0.92188-36c0-0.007812 0-0.011718-0.003906-0.015625 0 0 0-0.003906 0.003906-0.007812v-17.891s0-0.003906 0.003906-0.007813l-0.003906-0.007812c0.09375-0.64453 0.23438-0.73438 0.47266-0.83203 0.24609-0.097657 0.77734-0.10938 1.4258 0.050781 1.1797 0.29297 3.1133 1.2852 3.6758 1.582l11.836 5.8828c0.44922 0.30078 0.94531 0.49219 1.4492 0.59375l-4.6211 16.621h-3.2344c-0.55469-0.003906-1.0078 0.44922-1.0039 1.0039v2.9961c0 5.5117 4.4922 10.004 10.004 10.004 5.5117 0 9.9961-4.4922 9.9961-10.004v-2.9961c0.003906-0.55469-0.44531-1.0039-0.99609-1.0039h-3.2422l-4.6719-16.816c0.70703-0.27344 1.3438-0.74609 1.8125-1.4062 0.003906-0.003906 0.003906-0.007812 0.007812-0.011719 1.2578-1.8281 0.78906-4.3594-1.043-5.6172-3.5586-2.4453-7.1211-4.8906-10.676-7.3398-6.0859-4.5586-11.48-6.8203-16.188-6.8086h-10.062zm-23.941 21.734 3.6875 13.266h-7.3711zm59.004 3.0039 3.6797 13.262h-7.3672z"
    />
  </g>
</svg>
